<?xml version="1.0" encoding="utf-8"?>
<!-- Generator: Adobe Illustrator 18.0.0, SVG Export Plug-In . SVG Version: 6.00 Build 0)  -->
<!DOCTYPE svg PUBLIC "-//W3C//DTD SVG 1.1//EN" "http://www.w3.org/Graphics/SVG/1.1/DTD/svg11.dtd">
<svg version="1.1" id="圖層_1" xmlns="http://www.w3.org/2000/svg" xmlns:xlink="http://www.w3.org/1999/xlink" x="0px" y="0px"
	 viewBox="0 0 21.1 20.8" enable-background="new 0 0 21.1 20.8" xml:space="preserve">
<g>
	<g>
		<defs>
			<rect id="SVGID_1_" x="4.7" y="4.9" width="12" height="14.5"/>
		</defs>
		<clipPath id="SVGID_2_">
			<use xlink:href="#SVGID_1_"  overflow="visible"/>
		</clipPath>
		<path clip-path="url(#SVGID_2_)" fill="#8F98A4" d="M18.1,20.8H3.3V3.5h14.8V20.8z M6.1,18h9.2V6.3H6.1V18z"/>
	</g>
	<g>
		<defs>
			<rect id="SVGID_3_" x="7.4" y="1.4" width="6.7" height="4.8"/>
		</defs>
		<clipPath id="SVGID_4_">
			<use xlink:href="#SVGID_3_"  overflow="visible"/>
		</clipPath>
		<path clip-path="url(#SVGID_4_)" fill="#8F98A4" d="M15.4,7.6H6V0h9.5V7.6z M8.8,4.8h3.9v-2H8.8V4.8z"/>
	</g>
	<g>
		<defs>
			<rect id="SVGID_5_" x="7.4" y="8.3" width="1.3" height="7.6"/>
		</defs>
		<clipPath id="SVGID_6_">
			<use xlink:href="#SVGID_5_"  overflow="visible"/>
		</clipPath>
		<rect x="6" y="6.9" clip-path="url(#SVGID_6_)" fill="#8F98A4" width="4.1" height="10.4"/>
	</g>
	<g>
		<defs>
			<rect id="SVGID_7_" x="10" y="8.3" width="1.3" height="7.6"/>
		</defs>
		<clipPath id="SVGID_8_">
			<use xlink:href="#SVGID_7_"  overflow="visible"/>
		</clipPath>
		<rect x="8.6" y="6.9" clip-path="url(#SVGID_8_)" fill="#8F98A4" width="4.1" height="10.4"/>
	</g>
	<g>
		<defs>
			<rect id="SVGID_9_" x="12.7" y="8.3" width="1.3" height="7.6"/>
		</defs>
		<clipPath id="SVGID_10_">
			<use xlink:href="#SVGID_9_"  overflow="visible"/>
		</clipPath>
		<rect x="11.3" y="6.9" clip-path="url(#SVGID_10_)" fill="#8F98A4" width="4.1" height="10.4"/>
	</g>
	<g>
		<defs>
			<rect id="SVGID_11_" x="2.7" y="4.9" width="16" height="1.4"/>
		</defs>
		<clipPath id="SVGID_12_">
			<use xlink:href="#SVGID_11_"  overflow="visible"/>
		</clipPath>
		<rect x="2" y="4.2" clip-path="url(#SVGID_12_)" fill="#8F98A3" width="17.4" height="2.8"/>
	</g>
</g>
</svg>
