<?xml version="1.0" encoding="utf-8"?>
<!-- Generator: Adobe Illustrator 18.0.0, SVG Export Plug-In . SVG Version: 6.00 Build 0)  -->
<!DOCTYPE svg PUBLIC "-//W3C//DTD SVG 1.1//EN" "http://www.w3.org/Graphics/SVG/1.1/DTD/svg11.dtd">
<svg version="1.1" id="圖層_1" xmlns="http://www.w3.org/2000/svg" xmlns:xlink="http://www.w3.org/1999/xlink" x="0px" y="0px"
	 viewBox="0 0 30.4 27.9" enable-background="new 0 0 30.4 27.9" xml:space="preserve">
<g>
	<path fill="#FFFFFF" d="M22.5,25.9c-2.1,0-3.7-1.7-3.7-3.7c0-2,1.7-3.7,3.7-3.7s3.7,1.7,3.7,3.7C26.2,24.3,24.6,25.9,22.5,25.9z
		 M22.5,20.5c-1,0-1.7,0.8-1.7,1.7c0,0.9,0.8,1.7,1.7,1.7s1.7-0.8,1.7-1.7C24.2,21.3,23.4,20.5,22.5,20.5z"/>
	<path fill="#FFFFFF" d="M11.5,25.9c-2.1,0-3.7-1.7-3.7-3.7c0-2,1.7-3.7,3.7-3.7s3.7,1.7,3.7,3.7C15.2,24.3,13.6,25.9,11.5,25.9z
		 M11.5,20.5c-1,0-1.7,0.8-1.7,1.7c0,0.9,0.8,1.7,1.7,1.7s1.7-0.8,1.7-1.7C13.2,21.3,12.4,20.5,11.5,20.5z"/>
	<polygon fill="#FFFFFF" points="27.4,16.6 6.1,16.6 6.1,5.3 2.8,5.3 2.8,3.3 8.1,3.3 8.1,14.6 25.4,14.6 25.4,4.5 27.4,4.5 	"/>
</g>
</svg>
