<?xml version="1.0" encoding="utf-8"?>
<!-- Generator: Adobe Illustrator 18.0.0, SVG Export Plug-In . SVG Version: 6.00 Build 0)  -->
<!DOCTYPE svg PUBLIC "-//W3C//DTD SVG 1.1//EN" "http://www.w3.org/Graphics/SVG/1.1/DTD/svg11.dtd">
<svg version="1.1" id="圖層_1" xmlns="http://www.w3.org/2000/svg" xmlns:xlink="http://www.w3.org/1999/xlink" x="0px" y="0px"
	 viewBox="0 0 30.5 31.4" enable-background="new 0 0 30.5 31.4" xml:space="preserve">
<g>
	<g>
		<defs>
			<path id="SVGID_1_" d="M28.4,25.4c-3.8-2.2-8.9-5.2-8.9-5.2c-0.6-0.3-0.8-1.1-0.5-1.7c0.3-0.6,1.1-0.8,1.7-0.5l8.9,5.2
				C29.6,23.2,29.6,23.2,28.4,25.4z"/>
		</defs>
		<clipPath id="SVGID_2_">
			<use xlink:href="#SVGID_1_"  overflow="visible"/>
		</clipPath>
		<g clip-path="url(#SVGID_2_)">
			<defs>
				<rect id="SVGID_3_" x="-309" y="-340" width="1440" height="800"/>
			</defs>
			<clipPath id="SVGID_4_">
				<use xlink:href="#SVGID_3_"  overflow="visible"/>
			</clipPath>
			<rect x="13.8" y="12.8" clip-path="url(#SVGID_4_)" fill="#FFFFFF" width="20.8" height="17.6"/>
		</g>
	</g>
	<g>
		<defs>
			<path id="SVGID_5_" d="M6.2,20.6c-3-3-3-8.1,0-11.1s7.9-3,10.8,0c3,3,3,8,0,11.1C14.1,23.6,9.2,23.6,6.2,20.6z M4.8,7.9
				c-3.8,3.9-3.8,10.1,0,14s9.9,3.9,13.6,0c3.8-3.9,3.8-10.1,0-14C14.7,4.1,8.6,4,4.8,7.9z"/>
		</defs>
		<clipPath id="SVGID_6_">
			<use xlink:href="#SVGID_5_"  overflow="visible"/>
		</clipPath>
		<g clip-path="url(#SVGID_6_)">
			<defs>
				<rect id="SVGID_7_" x="-309" y="-340" width="1440" height="800"/>
			</defs>
			<clipPath id="SVGID_8_">
				<use xlink:href="#SVGID_7_"  overflow="visible"/>
			</clipPath>
			<rect x="-3" y="0" clip-path="url(#SVGID_8_)" fill="#FFFFFF" width="29.3" height="29.8"/>
		</g>
	</g>
</g>
</svg>
